# xmcd
#
# Track frame offsets:
#	150
#	11165
#	20147
#	32362
#	44002
#	56295
#	65927
#	74120
#	87095
#	99227
#	116270
#	125115
#	137327
#	147280
#	159200
#	170515
#	181697
#	190800
#	203635
#	217142
#
# Disc length: 2990 seconds
#
# Revision: 0
# Processed by: cddbd v1.5.1PL2 Copyright (c) Steve Scherf et al.
# Submitted via: dBpowerAMP V4.0
#
DISCID=1f0bac14
DTITLE=Hasil Adkins - Peanut Butter Rock and Roll
DYEAR=1900
DGENRE=Country
TTITLE0=Blue Suede Shoes
TTITLE1=If You Wanna Be My Baby
TTITLE2=Vivian Anne
TTITLE3=I Wanna Kiss Kiss Kiss Your Lips
TTITLE4=Peanut Butter Rock and Roll
TTITLE5=The Banana Boat Song
TTITLE6=Gimmie Back My Ring
TTITLE7=Come On Along
TTITLE8=Roll Roll Train
TTITLE9=Woke Up This Morning
TTITLE10=Come On and Do the Shake With Me
TTITLE11=You're Gonna Break My Heart
TTITLE12=Walk and Talk With Me
TTITLE13=The Slop
TTITLE14=C'mon Little Jenny
TTITLE15=Chicken Twist
TTITLE16=Let It Rock
TTITLE17=Stopwatch Baby
TTITLE18=Took My Baby Out
TTITLE19=Has Anybody Walked Beside Me
EXTD=
EXTT0=
EXTT1=
EXTT2=
EXTT3=
EXTT4=
EXTT5=
EXTT6=
EXTT7=
EXTT8=
EXTT9=
EXTT10=
EXTT11=
EXTT12=
EXTT13=
EXTT14=
EXTT15=
EXTT16=
EXTT17=
EXTT18=
EXTT19=
PLAYORDER=
